<?xml version="1.0" standalone="no"?><!DOCTYPE svg PUBLIC "-//W3C//DTD SVG 1.1//EN" "http://www.w3.org/Graphics/SVG/1.1/DTD/svg11.dtd"><svg t="1486621974406" class="icon" style="" viewBox="0 0 1024 1024" version="1.1" xmlns="http://www.w3.org/2000/svg" p-id="3974" xmlns:xlink="http://www.w3.org/1999/xlink" width="200" height="200"><defs><style type="text/css"></style></defs><path d="M501.00224 318.3616l188.91776 0L559.80032 188.25216c-13.96736-13.96736-13.96736-36.7104 0-50.67776 13.52704-13.53728 37.15072-13.53728 50.67776 0l191.29344 191.29344c6.76864 6.76864 10.496 15.7696 10.496 25.344s-3.72736 18.57536-10.496 25.344L610.48832 570.83904c-13.52704 13.53728-37.13024 13.55776-50.688 0-13.96736-13.96736-13.96736-36.7104 0-50.67776L689.92 390.0416 501.00224 390.0416c-119.98208 0-217.6 97.61792-217.6 217.6s97.61792 217.6 217.6 217.6l102.4 0c16.96768 0 30.72 13.75232 30.72 30.72l0 10.24c0 16.96768-13.75232 30.72-30.72 30.72l-102.4 0c-159.50848 0-289.28-129.77152-289.28-289.28S341.49376 318.3616 501.00224 318.3616z" p-id="3975" fill="#ffffff"></path></svg>